<svg xmlns="http://www.w3.org/2000/svg" viewBox="0 0 254.07 342"><defs><style>.cls-1{fill:#333;}</style></defs><title>cvicon</title><g id="Layer_2" data-name="Layer 2"><g id="Text"><path class="cls-1" d="M215.89,0H38.18A38.18,38.18,0,0,0,0,38.18V303.82A38.18,38.18,0,0,0,38.18,342H215.89a38.18,38.18,0,0,0,38.18-38.18V38.18A38.18,38.18,0,0,0,215.89,0ZM152.37,44.87l19.28,61.65,19-61.65h26.87l-31.81,85.67h-28.7L124.7,44.87Zm-104.14,10q11.31-11.41,32-11.41,16.18,0,25.45,6.54t13.76,20.1L96.06,75.26a20,20,0,0,0-2.57-5.73,15.2,15.2,0,0,0-5.43-4.68,15.65,15.65,0,0,0-7.19-1.63q-9,0-13.79,7.24-3.63,5.37-3.63,16.86,0,14.25,4.33,19.53t12.15,5.28c5.07,0,8.89-1.42,11.49-4.26s4.47-7,5.64-12.39l23.2,7a42.75,42.75,0,0,1-7.37,16.3,31.93,31.93,0,0,1-12.47,9.88Q93,132,81.45,132q-14,0-22.82-4.06T43.35,113.66q-6.42-10.22-6.43-26.16Q36.92,66.25,48.23,54.82ZM37,167A13.49,13.49,0,0,1,46.57,163h92a13.5,13.5,0,1,1,0,27h-92A13.51,13.51,0,0,1,37,167Zm182.1,135.1a13.49,13.49,0,0,1-9.55,3.95h-163a13.5,13.5,0,1,1,0-27h163a13.51,13.51,0,0,1,9.55,23.05Zm0-58a13.49,13.49,0,0,1-9.55,3.95h-163a13.5,13.5,0,1,1,0-27h163a13.51,13.51,0,0,1,9.55,23.05Z"/></g></g></svg>