<svg xmlns="http://www.w3.org/2000/svg" viewBox="0 0 135 135"><defs><style>.cls-1{fill:#4467ad;}</style></defs><title>Asset 1</title><g id="Layer_2" data-name="Layer 2"><g id="Graphic_Elements" data-name="Graphic Elements"><path class="cls-1" d="M67.5,0A67.5,67.5,0,1,0,135,67.5,67.5,67.5,0,0,0,67.5,0ZM45.22,104.39c-4.81-.06-9.61,0-14.41,0-.77,0-1-.19-1-1q0-25.68,0-51.34c0-.71.18-1,.93-1,4.87,0,9.74,0,14.61,0,.94,0,1.06.35,1.06,1.16q0,12.78,0,25.56c0,8.45,0,16.9,0,25.35C46.42,104.11,46.19,104.4,45.22,104.39ZM38.13,43.78a9.59,9.59,0,1,1,9.59-9.63A9.66,9.66,0,0,1,38.13,43.78Zm70.4,59.51c0,.87-.24,1.1-1.1,1.09q-7.22-.06-14.41,0c-.85,0-1-.25-1-1Q92,90,92,76.71a23.87,23.87,0,0,0-.78-6.61c-1.15-4-4-6-8.17-5.79-5.69.31-8.66,3.13-9.38,8.92a32.16,32.16,0,0,0-.26,4.16c0,8.63,0,17.26,0,25.89,0,.86-.22,1.11-1.1,1.1-4.83,0-9.67,0-14.51,0-.78,0-1-.2-1-1q0-25.62,0-51.25c0-.85.27-1,1.07-1q6.9.06,13.79,0c.84,0,1.06.27,1,1.07,0,2,0,4.08,0,6.13,1.11-1.25,2-2.52,3.16-3.59a17.34,17.34,0,0,1,12.47-4.92,28.81,28.81,0,0,1,7.85,1c5.86,1.7,9.26,5.73,10.89,11.45a48.39,48.39,0,0,1,1.45,13.12C108.55,84.64,108.51,94,108.53,103.29Z"/></g></g></svg>